<svg height="1166" width="720" xmlns="http://www.w3.org/2000/svg">
<rect height="1166" fill="#555" width="720"></rect>
<text fill="#7f7" font-family="Courier New" font-size="12" xml:space="preserve">
<tspan x="10" y="26">14 megabytes installed</tspan>
<tspan x="10" y="42"></tspan>
<tspan x="10" y="58">node_modules</tspan>
<tspan x="10" y="74">└─┬ jsxhint@0.15.1 </tspan>
<tspan x="10" y="90">  ├── bluebird@2.11.0 </tspan>
<tspan x="10" y="106">  ├─┬ debug@2.1.3 </tspan>
<tspan x="10" y="122">  │ └── ms@0.7.0 </tspan>
<tspan x="10" y="138">  ├─┬ fs-extra@0.16.5 </tspan>
<tspan x="10" y="154">  │ ├─┬ graceful-fs@3.0.11 </tspan>
<tspan x="10" y="170">  │ │ └── natives@1.1.0 </tspan>
<tspan x="10" y="186">  │ ├─┬ jsonfile@2.4.0 </tspan>
<tspan x="10" y="202">  │ │ └── graceful-fs@4.1.11 </tspan>
<tspan x="10" y="218">  │ └── rimraf@2.6.1 </tspan>
<tspan x="10" y="234">  ├─┬ glob-all@3.1.0 </tspan>
<tspan x="10" y="250">  │ ├─┬ glob@7.1.1 </tspan>
<tspan x="10" y="266">  │ │ ├── fs.realpath@1.0.0 </tspan>
<tspan x="10" y="282">  │ │ ├─┬ inflight@1.0.6 </tspan>
<tspan x="10" y="298">  │ │ │ └── wrappy@1.0.2 </tspan>
<tspan x="10" y="314">  │ │ ├── inherits@2.0.3 </tspan>
<tspan x="10" y="330">  │ │ ├── once@1.4.0 </tspan>
<tspan x="10" y="346">  │ │ └── path-is-absolute@1.0.1 </tspan>
<tspan x="10" y="362">  │ └─┬ yargs@1.2.6 </tspan>
<tspan x="10" y="378">  │   └── minimist@0.1.0 </tspan>
<tspan x="10" y="394">  ├─┬ jshint@2.9.4 </tspan>
<tspan x="10" y="410">  │ ├── cli@1.0.1 </tspan>
<tspan x="10" y="426">  │ ├─┬ console-browserify@1.1.0 </tspan>
<tspan x="10" y="442">  │ │ └── date-now@0.1.4 </tspan>
<tspan x="10" y="458">  │ ├── exit@0.1.2 </tspan>
<tspan x="10" y="474">  │ ├─┬ htmlparser2@3.8.3 </tspan>
<tspan x="10" y="490">  │ │ ├── domelementtype@1.3.0 </tspan>
<tspan x="10" y="506">  │ │ ├── domhandler@2.3.0 </tspan>
<tspan x="10" y="522">  │ │ ├─┬ domutils@1.5.1 </tspan>
<tspan x="10" y="538">  │ │ │ └─┬ dom-serializer@0.1.0 </tspan>
<tspan x="10" y="554">  │ │ │   ├── domelementtype@1.1.3 </tspan>
<tspan x="10" y="570">  │ │ │   └── entities@1.1.1 </tspan>
<tspan x="10" y="586">  │ │ ├── entities@1.0.0 </tspan>
<tspan x="10" y="602">  │ │ └─┬ readable-stream@1.1.14 </tspan>
<tspan x="10" y="618">  │ │   ├── core-util-is@1.0.2 </tspan>
<tspan x="10" y="634">  │ │   ├── isarray@0.0.1 </tspan>
<tspan x="10" y="650">  │ │   └── string_decoder@0.10.31 </tspan>
<tspan x="10" y="666">  │ ├── lodash@3.7.0 </tspan>
<tspan x="10" y="682">  │ ├─┬ minimatch@3.0.3 </tspan>
<tspan x="10" y="698">  │ │ └─┬ brace-expansion@1.1.7 </tspan>
<tspan x="10" y="714">  │ │   ├── balanced-match@0.4.2 </tspan>
<tspan x="10" y="730">  │ │   └── concat-map@0.0.1 </tspan>
<tspan x="10" y="746">  │ ├── shelljs@0.3.0 </tspan>
<tspan x="10" y="762">  │ └── strip-json-comments@1.0.4 </tspan>
<tspan x="10" y="778">  ├─┬ jstransform@11.0.3 </tspan>
<tspan x="10" y="794">  │ ├── base62@1.1.2 </tspan>
<tspan x="10" y="810">  │ ├─┬ commoner@0.10.8 </tspan>
<tspan x="10" y="826">  │ │ ├─┬ commander@2.9.0 </tspan>
<tspan x="10" y="842">  │ │ │ └── graceful-readlink@1.0.1 </tspan>
<tspan x="10" y="858">  │ │ ├─┬ detective@4.5.0 </tspan>
<tspan x="10" y="874">  │ │ │ ├── acorn@4.0.11 </tspan>
<tspan x="10" y="890">  │ │ │ └── defined@1.0.0 </tspan>
<tspan x="10" y="906">  │ │ ├── glob@5.0.15 </tspan>
<tspan x="10" y="922">  │ │ ├── graceful-fs@4.1.11 </tspan>
<tspan x="10" y="938">  │ │ ├── iconv-lite@0.4.15 </tspan>
<tspan x="10" y="954">  │ │ ├─┬ mkdirp@0.5.1 </tspan>
<tspan x="10" y="970">  │ │ │ └── minimist@0.0.8 </tspan>
<tspan x="10" y="986">  │ │ ├── private@0.1.7 </tspan>
<tspan x="10" y="1002">  │ │ ├── q@1.5.0 </tspan>
<tspan x="10" y="1018">  │ │ └─┬ recast@0.11.23 </tspan>
<tspan x="10" y="1034">  │ │   ├── ast-types@0.9.6 </tspan>
<tspan x="10" y="1050">  │ │   ├── esprima@3.1.3 </tspan>
<tspan x="10" y="1066">  │ │   └── source-map@0.5.6 </tspan>
<tspan x="10" y="1082">  │ ├── esprima-fb@15001.1.0-dev-harmony-fb </tspan>
<tspan x="10" y="1098">  │ ├── object-assign@2.1.1 </tspan>
<tspan x="10" y="1114">  │ └─┬ source-map@0.4.4 </tspan>
<tspan x="10" y="1130">  │   └── amdefine@1.0.1 </tspan>
<tspan x="10" y="1146">  └── through@2.3.8</tspan>
</text>
</svg>
